<?xml version="1.0" encoding="UTF-8"?><!DOCTYPE svg PUBLIC "-//W3C//DTD SVG 1.1//EN" "http://www.w3.org/Graphics/SVG/1.1/DTD/svg11.dtd"><svg xmlns="http://www.w3.org/2000/svg"><defs>
        <style>
            .cls-1{fill:#8ea1b1;fill-rule:evenodd}
        </style>
    
        <style>
            .cls-1{fill-rule:evenodd}
        </style>
    </defs><symbol id="ico-arrow" viewBox="0 0 29.83 19.09">
    
    <title>
        arrow
    </title>
    <path class="cls-1" d="M314.79 523.43l7.22-7.48h-17.53l-4.67-4.81 3.51-2.71 3.23 3.4H322l-7.22-7.48h5.63l9.21 9.54-9.21 9.54h-5.63z" transform="translate(-299.81 -504.34)"/>
</symbol><symbol id="ico-close" viewBox="0 0 33 33">
    <path d="M32.526 2.828L29.698 0 16.263 13.435 2.828 0 0 2.828l13.435 13.435L0 29.698l2.828 2.828 13.435-13.435 13.435 13.435 2.828-2.828-13.435-13.435z"/>
</symbol><symbol id="ico-contact_ico" viewBox="0 0 55 51">
    <path fill-rule="evenodd" clip-rule="evenodd" d="M27.077 25.307L7.012 10.682a6.208 6.208 0 0 1 4.807-2.281h30.697c1.869 0 3.542.833 4.686 2.147L27.077 25.307zm0 6.532l21.68-15.586v20.109c0 3.478-2.795 6.297-6.242 6.297H11.818c-3.448 0-6.242-2.819-6.242-6.297v-20.64l21.501 16.117z"/>
</symbol><symbol id="ico-exchange_ico" viewBox="0 0 55 51">
    <path fill-rule="evenodd" clip-rule="evenodd" d="M26.12 22.423l10.754 11.145h-23.04l-4.807-5.066L3.8 32.544l6.963 7.161h26.111L26.12 50.852h8.391l13.722-14.214L34.51 22.423h-8.39zm.031 6.317L15.397 17.555h23.04l4.807 5.084 5.227-4.056-6.963-7.187H15.397L26.151.21H17.76L4.038 14.475 17.76 28.74h8.391z"/>
</symbol><symbol id="ico-faq_ico" viewBox="0 0 55 51">
    <path d="M39.426.21H14.113a7.446 7.446 0 0 0-7.445 7.447v25.619a7.446 7.446 0 0 0 7.445 7.447h13.663l11.077 10.128V40.723h.573a7.446 7.446 0 0 0 7.445-7.447V7.657A7.446 7.446 0 0 0 39.426.21zm-9.657 36.235h-6.263v-6.057h6.263v6.057zm6.138-17.816c-.742 1.082-2.049 2.276-3.922 3.58-.992.708-1.658 1.36-1.998 1.956-.43.77-.645 1.88-.645 3.33h-5.67c0-2.248.229-3.868.688-4.86.57-1.249 1.806-2.543 3.709-3.882.854-.597 1.524-1.249 2.011-1.956a4.231 4.231 0 0 0 .677-2.3c0-1.512-.468-2.636-1.405-3.372-.763-.597-1.687-.895-2.769-.895-1.305 0-2.356.356-3.155 1.067-.798.711-1.298 2.003-1.499 3.877l-6.048.042c0-3.434 1.12-6.046 3.36-7.836 1.879-1.478 4.196-2.217 6.949-2.217 3.468 0 6.197.836 8.187 2.508 1.873 1.561 2.809 3.764 2.809 6.608 0 1.679-.426 3.129-1.279 4.35z"/>
</symbol><symbol id="ico-like" viewBox="0 0 39.79 43.58">
    <title>
        like
    </title>
    <path d="M33.37 0h-27A6.41 6.41 0 0 0-.05 6.41v22a6.41 6.41 0 0 0 6.42 6.41h16.91l9.55 8.72v-8.72h.49a6.41 6.41 0 0 0 6.5-6.39v-22A6.41 6.41 0 0 0 33.37 0zM11.72 28a1.38 1.38 0 0 1-1.49 1.52h-1a1.33 1.33 0 0 1-1.34-1 1.19 1.19 0 0 0-.05-.11V15.99a4.3 4.3 0 0 1 .35-.67 1.16 1.16 0 0 1 .91-.46h1.28a1.35 1.35 0 0 1 1.37 1.41v5q-.03 3.37-.03 6.68zm21.76-6.42a6.58 6.58 0 0 1-.4 1.3c-1.09 2-2.23 3.92-3.35 5.88a1.41 1.41 0 0 1-1.3.76H15.69a3 3 0 0 1-1.14-.26 1.81 1.81 0 0 1-1.2-1.83V16.34a2.46 2.46 0 0 1 .74-2 .66.66 0 0 0 .08-.1 31.39 31.39 0 0 0 3.4-5.65 1.1 1.1 0 0 0 .1-.44V5.26a1.31 1.31 0 0 1 1.37-1.3h1.8a1.14 1.14 0 0 1 .91.36 3.89 3.89 0 0 1 .55.87 8 8 0 0 1 .86 3.61 18.87 18.87 0 0 1-.54 3.5l-.14.68h9.41a1.42 1.42 0 0 1 1.25.56 4 4 0 0 1 .28.56v7.53z"/>
</symbol><symbol id="ico-logo" viewBox="0 0 427 95">
    <path fill-rule="evenodd" clip-rule="evenodd" d="M409.846 57.59l-2.374-13.152h-10.847l-3.006 13.152h-10.3L396.13 7.083h12.88l11.188 50.507h-10.352zm-7.414-44.152l-4.629 23.52h8.472l-3.843-23.52zm-23.944 21.555c-2.056 1.355-4.41 2.033-7.063 2.033h-8.387V57.59h-9.583V7.084h18.124c2.653 0 4.993.655 7.021 1.964 2.027 1.31 3.59 3.089 4.689 5.338 1.099 2.249 1.648 4.734 1.648 7.456 0 2.778-.561 5.326-1.682 7.643-1.123 2.317-2.711 4.153-4.767 5.508zm-10.616-20.428h-4.834v14.979h4.834c4.794 0 7.191-2.522 7.191-7.567.001-4.941-2.397-7.412-7.191-7.412zm-13.812 72.66h-2.066l-3.638-6.261h-3.134v6.261h-1.747V72.171h4.121c1.843 0 3.204.354 4.085 1.061.88.707 1.32 1.771 1.32 3.192 0 1.991-1.007 3.336-3.021 4.037l4.08 6.764zm-3.73-8.5c.575-.491.863-1.227.863-2.209 0-.995-.293-1.713-.879-2.152-.586-.439-1.526-.659-2.821-.659h-2.271v5.756h2.394c1.234 0 2.138-.245 2.714-.736zM319.527 7.084h27.006v8.113H329.11v11.478h15.886v7.618H329.11v15.594h17.423v7.703h-27.006V7.084zm-8.638 70.889c.455.278 1.153.585 2.091.922 1.576.563 2.66 1.167 3.253 1.812.592.645.889 1.483.889 2.512 0 1.325-.48 2.358-1.439 3.1-.959.741-2.261 1.112-3.905 1.112-1.781 0-3.151-.23-4.111-.69v-1.689c.617.261 1.288.467 2.014.618.726.151 1.445.226 2.158.226 1.165 0 2.042-.221 2.631-.664.589-.443.884-1.059.884-1.848 0-.522-.104-.949-.313-1.282-.209-.333-.558-.64-1.048-.922-.49-.281-1.235-.601-2.235-.958-1.398-.501-2.396-1.095-2.996-1.781-.599-.686-.899-1.582-.899-2.688 0-1.16.435-2.083 1.305-2.77.87-.686 2.021-1.03 3.453-1.03 1.493 0 2.867.275 4.121.824l-.545 1.524c-1.24-.522-2.446-.783-3.617-.783-.925 0-1.648.199-2.168.597-.521.398-.781.951-.781 1.658 0 .522.096.949.288 1.282.191.335.515.64.97.918zm-5.142-21.1c-2.329 1.082-5.15 1.623-8.464 1.623-3.508 0-6.474-.658-8.9-1.974-2.426-1.316-4.242-3.216-5.449-5.7-1.207-2.484-1.811-5.458-1.811-8.922v-1.949h9.156v1.946c0 5.93 2.331 8.895 6.994 8.895 1.785 0 3.176-.498 4.171-1.494.995-.996 1.493-2.296 1.493-3.901 0-1.582-.409-2.937-1.228-4.063-.819-1.127-2.161-2.288-4.025-3.483l-8.519-5.6c-5.042-3.278-7.563-7.615-7.563-13.01 0-4.075 1.372-7.274 4.116-9.596 2.744-2.322 6.342-3.483 10.795-3.483 3.165 0 5.873.575 8.121 1.725 2.249 1.15 3.951 2.869 5.107 5.157 1.156 2.288 1.734 5.1 1.734 8.435v1.554h-9.155v-.563c0-5.736-2.01-8.605-6.029-8.605-1.435 0-2.645.376-3.63 1.127-.985.752-1.477 1.799-1.477 3.143 0 1.389.259 2.508.777 3.356.518.848 1.335 1.643 2.451 2.383l9.788 6.508c1.947 1.298 3.536 2.551 4.766 3.758 1.23 1.207 2.178 2.642 2.844 4.304.666 1.663.999 3.706.999 6.132 0 2.961-.595 5.48-1.785 7.558-1.189 2.077-2.949 3.657-5.277 4.739zm-17.475 16.853h-6.628v4.85h6.228v1.545h-6.228v5.54h6.628v1.565h-8.375V72.171h8.375v1.555zm-31.725-15.908l1.489-7.208H237.37c.247-2.109.999-4.072 2.256-5.889 1.256-1.816 2.848-3.61 4.776-5.381 1.927-1.771 4.062-3.724 6.406-5.859 2.448-2.37 4.339-5.013 5.674-7.929 1.335-2.917 2.002-5.872 2.002-8.867 0-2.981-.71-5.628-2.129-7.939a14.794 14.794 0 0 0-.651-.965h7.087l9.175 25.262-9.175 24.688-6.244.087zM228.698 9.386c-1.523 2.619-2.285 5.772-2.285 9.459v3.361h10.235v-3.104c0-3.162.485-5.407 1.455-6.735.97-1.328 2.406-1.991 4.307-1.991 3.789 0 5.684 2.427 5.684 7.281 0 1.965-.361 3.644-1.084 5.037-.723 1.392-2.308 3.312-4.756 5.759-1.823 1.64-3.61 3.254-5.361 4.842-1.751 1.588-3.477 3.443-5.176 5.564-1.699 2.121-3.128 4.643-4.287 7.565-1.159 2.922-1.738 6.231-1.738 9.928V58.1h-8.986l-14.075-36.655c.843 4.088 1.264 10.362 1.264 18.823V58.1h-9.019V7.593h10.352l14.058 36.723c-.831-4.589-1.247-10.863-1.247-18.823v-17.9h9.019v.188h2.704a16.845 16.845 0 0 0-1.064 1.605zM184.077 73.52c-1.651 0-2.954.551-3.91 1.653s-1.434 2.61-1.434 4.526c0 1.97.461 3.493 1.382 4.567.921 1.074 2.235 1.611 3.941 1.611 1.048 0 2.244-.189 3.586-.566v1.534c-1.041.391-2.326.587-3.854.587-2.213 0-3.921-.673-5.123-2.018-1.202-1.345-1.803-3.257-1.803-5.736 0-1.551.289-2.911.868-4.078.579-1.167 1.415-2.066 2.507-2.698 1.093-.632 2.379-.947 3.859-.947 1.576 0 2.953.288 4.131.865l-.74 1.503c-1.135-.536-2.272-.803-3.41-.803zm-7.255-65.927h9.583V58.1h-9.583V7.593zm-8.675 79.632l-4.039-6.621-4.111 6.621h-1.85l4.994-7.867-4.655-7.187h1.932l3.73 5.962 3.761-5.962h1.86l-4.655 7.126 5.015 7.929h-1.982zm-6.918-29.834c-2.403 1.076-5.295 1.614-8.678 1.614-10.966 0-16.45-5.665-16.45-16.995V23.956c0-4.099.683-7.433 2.05-10s3.274-4.424 5.722-5.568c2.448-1.144 5.341-1.716 8.677-1.716 3.382 0 6.271.561 8.669 1.682 2.397 1.122 4.256 2.966 5.577 5.534 1.321 2.568 1.981 5.924 1.981 10.069V42.01c0 4.145-.658 7.476-1.973 9.992-1.313 2.517-3.172 4.313-5.575 5.389zm-2.254-34.408c0-2.71-.555-4.822-1.665-6.337-1.11-1.514-2.696-2.272-4.757-2.272-4.441 0-6.662 2.824-6.662 8.472v20.36c0 5.409 2.221 8.113 6.662 8.113 2.084 0 3.675-.694 4.774-2.084 1.099-1.389 1.648-3.399 1.648-6.029V22.983zm-36.096 34.024c-2.282 1.48-5.312 2.221-9.091 2.221-5.804 0-9.856-1.529-12.155-4.586-2.299-3.057-3.449-7.154-3.449-12.289V24.025c0-5.864 1.314-10.223 3.944-13.075 2.629-2.852 6.561-4.279 11.797-4.279 3.187 0 5.927.598 8.22 1.793 2.293 1.196 4.026 2.924 5.199 5.184 1.172 2.261 1.759 4.928 1.759 8.002v2.374h-9.651v-1.11c0-3.154-.433-5.366-1.298-6.636-.866-1.27-2.323-1.904-4.373-1.904-2.061 0-3.545.641-4.45 1.922-.905 1.281-1.358 3.487-1.358 6.619V42.78c0 3.223.441 5.486 1.324 6.79.882 1.304 2.354 1.956 4.416 1.956 1.981 0 3.433-.666 4.356-1.998.923-1.332 1.384-3.581 1.384-6.747v-2.733h9.651v2.306c0 3.279-.467 6.172-1.4 8.677-.935 2.503-2.543 4.496-4.825 5.976zm-20.336 27.747c-.014-.185-.045-.781-.092-1.787-.048-1.006-.065-1.725-.051-2.157v-8.639h1.634v15.054h-1.994L93.829 74.59h-.082a55.99 55.99 0 0 1 .164 4.078v8.557h-1.613V72.171h1.973l8.19 12.583h.082zM82.148 58.1h-9.583V15.707H61.308V7.593h31.823v8.113H82.148V58.1zM66.612 73.726h-4.758v13.5h-1.747v-13.5h-4.758v-1.555h11.263v1.555zM45.562 7.593h9.583V58.1h-9.583V7.593zm2.427 65.185l-.545 1.524c-1.24-.522-2.446-.783-3.617-.783-.925 0-1.648.199-2.168.597-.521.398-.781.951-.781 1.658 0 .522.096.949.288 1.282.192.333.516.638.971.916.455.278 1.153.585 2.091.922 1.576.563 2.66 1.167 3.253 1.812.592.645.889 1.483.889 2.512 0 1.325-.48 2.358-1.439 3.1-.959.741-2.261 1.112-3.905 1.112-1.781 0-3.151-.23-4.111-.69v-1.689c.617.261 1.288.467 2.014.618.726.151 1.445.226 2.158.226 1.165 0 2.042-.221 2.631-.664.589-.443.884-1.059.884-1.848 0-.522-.105-.949-.313-1.282-.209-.333-.559-.64-1.048-.922-.49-.281-1.235-.601-2.235-.958-1.398-.501-2.396-1.095-2.996-1.781-.6-.686-.899-1.582-.899-2.688 0-1.16.435-2.083 1.305-2.77.87-.686 2.021-1.03 3.453-1.03 1.492.002 2.866.277 4.12.826zm-9.855-29.657c0 2.984-.43 5.597-1.29 7.84-.86 2.243-2.155 3.994-3.886 5.252-1.731 1.258-3.855 1.887-6.371 1.887H7.285V7.593h17.697c2.813 0 5.156.558 7.029 1.674 1.873 1.116 3.246 2.605 4.117 4.466.871 1.862 1.307 3.92 1.307 6.175 0 1.617-.282 3.237-.845 4.859-.564 1.623-1.361 2.995-2.391 4.116-1.031 1.122-2.212 1.813-3.545 2.075 2.539 1.025 4.421 2.502 5.645 4.432 1.223 1.932 1.835 4.508 1.835 7.731zM26.527 16.347c-.882-1.03-2.377-1.546-4.484-1.546h-5.176V28.09h5.039c3.963 0 5.944-2.289 5.944-6.866.001-2.221-.44-3.846-1.323-4.877zm-3.51 18.951h-6.149v15.594h6.149c1.833 0 3.18-.609 4.04-1.828.86-1.218 1.29-3.222 1.29-6.012 0-5.169-1.777-7.754-5.33-7.754zM8.327 87.225H6.58V72.171h1.747v15.054zM28.4 84.754h.082c-.014-.185-.045-.781-.093-1.787-.048-1.006-.065-1.725-.051-2.157v-8.639h1.634v15.054h-1.994L19.767 74.59h-.082a55.99 55.99 0 0 1 .164 4.078v8.557h-1.613V72.171h1.973L28.4 84.754zm50.135-12.645l5.909 15.116h-1.809l-1.87-4.788h-6.022l-1.85 4.788h-1.768l5.94-15.116h1.47zm1.685 8.753l-1.747-4.665a24.984 24.984 0 0 1-.699-2.173 19.825 19.825 0 0 1-.647 2.173l-1.768 4.665h4.861zm43.115-7.136h-4.758v13.5h-1.747v-13.5h-4.758v-1.555h11.263v1.555zm27.679 0h-6.628v4.85h6.228v1.545h-6.228v5.54h6.628v1.565h-8.375V72.171h8.375v1.555zm47.442 4.85h7.913v-6.405h1.747v15.054h-1.747v-7.084h-7.913v7.084h-1.747V72.171h1.747v6.405zm24.913-6.467l5.909 15.116h-1.809l-1.87-4.788h-6.022l-1.85 4.788h-1.768l5.94-15.116h1.47zm1.685 8.753l-1.747-4.665a24.984 24.984 0 0 1-.699-2.173 19.825 19.825 0 0 1-.647 2.173l-1.768 4.665h4.861zm22.241 3.892h.082c-.014-.185-.045-.781-.092-1.787-.048-1.006-.065-1.725-.051-2.157v-8.639h1.634v15.054h-1.994l-8.211-12.635h-.082a55.99 55.99 0 0 1 .164 4.078v8.557h-1.613V72.171h1.973l8.19 12.583zm14.358-11.868c1.178-.621 2.559-.932 4.141-.932 1.603 0 3.097.295 4.481.886l-.678 1.545c-1.356-.577-2.662-.865-3.915-.865-1.829 0-3.258.546-4.285 1.637-1.028 1.091-1.542 2.605-1.542 4.541 0 2.032.495 3.573 1.485 4.623.99 1.05 2.444 1.575 4.362 1.575 1.041 0 2.059-.12 3.052-.36v-4.634h-3.36v-1.565h5.107v7.321c-.795.254-1.603.446-2.425.577-.822.13-1.774.196-2.857.196-2.275 0-4.046-.678-5.313-2.034-1.267-1.356-1.901-3.256-1.901-5.7 0-1.565.313-2.936.94-4.114a6.378 6.378 0 0 1 2.708-2.697zm72.705.84h-6.628v4.85h6.228v1.545h-6.228v5.54h6.628v1.565h-8.375V72.171h8.375v1.555zm31.152 8.186c.397 1.119.713 2.207.946 3.264.247-1.112.568-2.221.966-3.326l3.432-9.679h1.881l-5.416 15.054h-1.727l-5.385-15.054h1.85l3.453 9.741zm16.825 5.313h-1.747V72.171h1.747v15.054zm12.504-14.323c1.093-.632 2.379-.947 3.859-.947 1.576 0 2.953.288 4.131.865l-.74 1.503c-1.137-.535-2.275-.803-3.412-.803-1.651 0-2.955.551-3.91 1.653s-1.434 2.61-1.434 4.526c0 1.97.461 3.493 1.382 4.567.921 1.074 2.235 1.611 3.941 1.611 1.048 0 2.244-.189 3.586-.566v1.534c-1.041.391-2.326.587-3.854.587-2.213 0-3.921-.673-5.123-2.018-1.202-1.345-1.803-3.257-1.803-5.736 0-1.551.289-2.911.868-4.078.58-1.167 1.416-2.067 2.509-2.698zm24.845.824h-6.628v4.85h6.228v1.545h-6.228v5.54h6.628v1.565h-8.375V72.171h8.375v1.555z"/>
</symbol><symbol id="ico-menu" viewBox="0 0 53 53">
    <path d="M2 13.5h49a2 2 0 0 0 0-4H2a2 2 0 0 0 0 4z"/>
    <path d="M2 28.5h49a2 2 0 0 0 0-4H2a2 2 0 0 0 0 4z"/>
    <path d="M2 43.5h49a2 2 0 0 0 0-4H2a2 2 0 0 0 0 4z"/>
</symbol><symbol id="ico-message" viewBox="0 0 41.97 33.59">
    
    <title>
        message
    </title>
    <path class="cls-1" d="M310.35 314.75l-19.5-14.34a6 6 0 0 1 4.67-2.24h29.83a6 6 0 0 1 4.55 2.11zm0 6.4l21.07-15.28v19.72a6.12 6.12 0 0 1-6.07 6.17h-29.83a6.12 6.12 0 0 1-6.07-6.17v-20.24z" transform="translate(-289.45 -298.17)"/>
</symbol><symbol id="ico-news_ico" viewBox="0 0 55 51">
    <path d="M32.701 10.504l-4.687 1.514c-1.534.495-3.069.986-4.603 1.481-1.553.501-3.105 1.006-4.658 1.508-1.562.504-3.125 1.007-4.688 1.509-1.582.509-3.163 1.019-4.745 1.522-.334.106-.392.036-.393-.416-.002-.989.001-1.979-.001-2.969-.001-.448-.036-.493-.387-.494-.913-.003-1.825-.002-2.738 0-.414.001-.432.021-.432.546-.001 5.423.001 10.847-.005 16.27 0 .345.089.465.353.461.942-.013 1.884-.003 2.825-.006.351-.002.382-.045.383-.498.002-.989 0-1.979.002-2.968.001-.506.052-.555.422-.435.48.155.961.306 1.441.461 1.789.577 3.576 1.162 5.368 1.723.298.093.381.279.38.652-.566 1.952-.548 1.953-1.019 3.972-.494 2.119.416 4.256 2.06 4.774 4.057 1.279 8.66 3.183 12.724 4.429.401.123.861.145 1.272.038 1.34-.348 2.236-1.366 2.602-3.087.114-.537 1.129-4.598 1.534-4.469 2.396.764 6.346 2.821 6.346 2.821l.093-31.214s-1.742.393-4.79 1.376c-1.553.5-3.106.998-4.659 1.499zm-1.072 29.119c-.123.507-.361.691-.765.577-.387-.11-.77-.235-1.154-.356-1.584-.495-3.44-1.306-5.024-1.802-1.912-.598-4.096-1.512-6.008-2.111-.57-.179-.659-.38-.49-1.113.373-1.608.586-1.835 1.03-3.517 0-.544.05-.589.462-.456 3.511 1.133 7.022 2.264 10.532 3.398.696.225 1.39.462 2.088.681.229.072.322.228.309.531-.013.326-.904 3.855-.98 4.168zm18.404-16.798h-.003V5.765c0-.125.002-.251-.001-.376-.01-.379-.062-.431-.36-.358-.067.016-.132.042-.198.063-1.158.374-2.315.752-3.474 1.119-.436.138-.454.15-.454.72 0 10.572.003 21.143-.008 31.715 0 .431.119.593.42.687 1.246.386 2.487.796 3.73 1.195.296.095.346.04.346-.345.002-5.787.002-11.573.002-17.36z"/>
</symbol><symbol id="ico-quest" viewBox="0 0 35 45">
    <title>
        quest
    </title>
    <path d="M28.52-.04h-22A6.55 6.55 0 0 0 .04 6.58v22.76a6.55 6.55 0 0 0 6.48 6.62h11.89l9.64 9v-9h.5a6.55 6.55 0 0 0 6.48-6.62V6.62a6.55 6.55 0 0 0-6.51-6.66zm-8.41 32.2h-5.47v-5.38h5.45v5.38zm5.34-15.83a13.63 13.63 0 0 1-3.41 3.18 6 6 0 0 0-1.74 1.74 6.28 6.28 0 0 0-.56 3H14.8a11.28 11.28 0 0 1 .6-4.32 9.37 9.37 0 0 1 3.23-3.45 6.9 6.9 0 0 0 1.75-1.74 3.81 3.81 0 0 0 .59-2 3.61 3.61 0 0 0-1.22-3 3.75 3.75 0 0 0-2.41-.8 3.92 3.92 0 0 0-2.75.95 5.34 5.34 0 0 0-1.3 3.44H8.02a8.46 8.46 0 0 1 2.93-7 9.36 9.36 0 0 1 6-2 10.6 10.6 0 0 1 7.13 2.23 7.29 7.29 0 0 1 2.45 5.87 6.68 6.68 0 0 1-1.07 3.94z"/>
</symbol><symbol id="ico-reviews_ico" viewBox="0 0 55 51">
    <path d="M43.827.468H12.558a7.446 7.446 0 0 0-7.445 7.447v25.619a7.446 7.446 0 0 0 7.445 7.447h19.619L43.254 51.11V40.982h.573a7.446 7.446 0 0 0 7.445-7.447V7.916A7.447 7.447 0 0 0 43.827.468zM18.713 32.955c-.001 1.12-.633 1.763-1.733 1.767-.397.001-.795.005-1.192-.001-.782-.012-1.31-.417-1.555-1.181-.015-.046-.039-.089-.059-.133V19.059c.133-.26.234-.546.408-.774.26-.34.632-.522 1.06-.534a36.61 36.61 0 0 1 1.482-.004c.927.013 1.584.688 1.587 1.643.006 1.953.002 3.907.002 5.86.002 2.569.002 5.137 0 7.705zm25.251-7.467c-.152.505-.221 1.058-.469 1.506-1.269 2.292-2.584 4.557-3.882 6.832-.338.592-.846.883-1.509.884-4.925.004-9.85.012-14.775-.007-.441-.002-.908-.122-1.317-.297-.902-.387-1.399-1.045-1.39-2.133.033-4.295.033-8.591-.002-12.886-.008-.94.148-1.745.864-2.376.036-.032.06-.077.09-.116 1.558-2.037 2.842-4.248 3.945-6.571.073-.153.114-.337.117-.507.022-1.12 0-2.242.053-3.361.043-.919.687-1.499 1.585-1.511.698-.009 1.396.001 2.094-.003.406-.002.79.11 1.052.418.256.3.47.651.639 1.011.62 1.325 1.031 2.705.997 4.199-.031 1.387-.345 2.725-.631 4.07l-.167.79h.393c3.51.003 7.019.007 10.529.008.581 0 1.1.149 1.456.65.138.195.221.431.328.648v8.752z"/>
</symbol></svg>