<?xml version="1.0" encoding="utf-8"?>
<!-- Generator: Adobe Illustrator 17.0.0, SVG Export Plug-In . SVG Version: 6.00 Build 0)  -->
<!DOCTYPE svg PUBLIC "-//W3C//DTD SVG 1.1//EN" "http://www.w3.org/Graphics/SVG/1.1/DTD/svg11.dtd">
<svg version="1.1" id="Layer_1" xmlns="http://www.w3.org/2000/svg" xmlns:xlink="http://www.w3.org/1999/xlink" x="0px" y="0px"
	 width="55px" height="51px" viewBox="0 0 55 51">
<g>
	<g>
		<path fill="#A6D0F0" d="M39.426,0.21H14.113c-4.112,0-7.445,3.334-7.445,7.447v25.619c0,4.113,3.333,7.447,7.445,7.447h13.663
			l11.077,10.128V40.723h0.573c4.112,0,7.445-3.334,7.445-7.447V7.657C46.871,3.544,43.537,0.21,39.426,0.21z M29.769,36.445h-6.263
			v-6.057h6.263V36.445z M35.907,18.629c-0.742,1.082-2.049,2.276-3.922,3.58c-0.992,0.708-1.658,1.36-1.998,1.956
			c-0.43,0.77-0.645,1.88-0.645,3.33h-5.67c0-2.248,0.229-3.868,0.688-4.86c0.57-1.249,1.806-2.543,3.709-3.882
			c0.854-0.597,1.524-1.249,2.011-1.956c0.451-0.714,0.677-1.481,0.677-2.3c0-1.512-0.468-2.636-1.405-3.372
			c-0.763-0.597-1.687-0.895-2.769-0.895c-1.305,0-2.356,0.356-3.155,1.067c-0.798,0.711-1.298,2.003-1.499,3.877l-6.048,0.042
			c0-3.434,1.12-6.046,3.36-7.836c1.879-1.478,4.196-2.217,6.949-2.217c3.468,0,6.197,0.836,8.187,2.508
			c1.873,1.561,2.809,3.764,2.809,6.608C37.186,15.958,36.76,17.408,35.907,18.629z"/>
	</g>
</g>
</svg>
