<svg id="Layer_1" data-name="Layer 1" xmlns="http://www.w3.org/2000/svg" viewBox="0 0 39.79 43.58"><title>like</title><path d="M267.55,297.57h-27a6.41,6.41,0,0,0-6.42,6.41v22a6.41,6.41,0,0,0,6.42,6.41h16.91l9.55,8.72v-8.72h0.49A6.41,6.41,0,0,0,274,326V304A6.41,6.41,0,0,0,267.55,297.57Zm-21.65,28a1.38,1.38,0,0,1-1.49,1.52h-1a1.33,1.33,0,0,1-1.34-1,1.19,1.19,0,0,0-.05-0.11V313.56a4.3,4.3,0,0,1,.35-0.67,1.16,1.16,0,0,1,.91-0.46c0.43,0,.85,0,1.28,0a1.35,1.35,0,0,1,1.37,1.41c0,1.68,0,3.36,0,5Q245.9,322.21,245.9,325.52Zm21.76-6.42a6.58,6.58,0,0,1-.4,1.3c-1.09,2-2.23,3.92-3.35,5.88a1.41,1.41,0,0,1-1.3.76c-4.25,0-8.49,0-12.74,0a3,3,0,0,1-1.14-.26,1.81,1.81,0,0,1-1.2-1.83q0-5.54,0-11.09a2.46,2.46,0,0,1,.74-2,0.66,0.66,0,0,0,.08-0.1,31.39,31.39,0,0,0,3.4-5.65,1.1,1.1,0,0,0,.1-0.44c0-1,0-1.93,0-2.89a1.31,1.31,0,0,1,1.37-1.3h1.8a1.14,1.14,0,0,1,.91.36,3.89,3.89,0,0,1,.55.87,8,8,0,0,1,.86,3.61,18.87,18.87,0,0,1-.54,3.5l-0.14.68h9.41a1.42,1.42,0,0,1,1.25.56,4,4,0,0,1,.28.56v7.53Z" transform="translate(-234.18 -297.57)"/></svg>