<?xml version="1.0" encoding="utf-8"?>
<!-- Generator: Adobe Illustrator 17.0.0, SVG Export Plug-In . SVG Version: 6.00 Build 0)  -->
<!DOCTYPE svg PUBLIC "-//W3C//DTD SVG 1.1//EN" "http://www.w3.org/Graphics/SVG/1.1/DTD/svg11.dtd">
<svg version="1.1" id="Layer_1" xmlns="http://www.w3.org/2000/svg" xmlns:xlink="http://www.w3.org/1999/xlink" x="0px" y="0px"
	 width="427px" height="95px" viewBox="0 0 427 95">
<path fill-rule="evenodd" clip-rule="evenodd" fill="#C7C6C6" d="M409.846,57.59l-2.374-13.152h-10.847l-3.006,13.152h-10.3
	l12.811-50.507h12.88l11.188,50.507H409.846z M402.432,13.438l-4.629,23.52h8.472L402.432,13.438z M378.488,34.993
	c-2.056,1.355-4.41,2.033-7.063,2.033h-8.387V57.59h-9.583V7.084h18.124c2.653,0,4.993,0.655,7.021,1.964
	c2.027,1.31,3.59,3.089,4.689,5.338c1.099,2.249,1.648,4.734,1.648,7.456c0,2.778-0.561,5.326-1.682,7.643
	C382.132,31.802,380.544,33.638,378.488,34.993z M367.872,14.565h-4.834v14.979h4.834c4.794,0,7.191-2.522,7.191-7.567
	C375.064,17.036,372.666,14.565,367.872,14.565z M354.06,87.225h-2.066l-3.638-6.261h-3.134v6.261h-1.747V72.171h4.121
	c1.843,0,3.204,0.354,4.085,1.061c0.88,0.707,1.32,1.771,1.32,3.192c0,1.991-1.007,3.336-3.021,4.037L354.06,87.225z M350.33,78.725
	c0.575-0.491,0.863-1.227,0.863-2.209c0-0.995-0.293-1.713-0.879-2.152c-0.586-0.439-1.526-0.659-2.821-0.659h-2.271v5.756h2.394
	C348.85,79.461,349.754,79.216,350.33,78.725z M319.527,7.084h27.006v8.113H329.11v11.478h15.886v7.618H329.11v15.594h17.423v7.703
	h-27.006V7.084z M310.889,77.973c0.455,0.278,1.153,0.585,2.091,0.922c1.576,0.563,2.66,1.167,3.253,1.812
	c0.592,0.645,0.889,1.483,0.889,2.512c0,1.325-0.48,2.358-1.439,3.1c-0.959,0.741-2.261,1.112-3.905,1.112
	c-1.781,0-3.151-0.23-4.111-0.69v-1.689c0.617,0.261,1.288,0.467,2.014,0.618c0.726,0.151,1.445,0.226,2.158,0.226
	c1.165,0,2.042-0.221,2.631-0.664c0.589-0.443,0.884-1.059,0.884-1.848c0-0.522-0.104-0.949-0.313-1.282
	c-0.209-0.333-0.558-0.64-1.048-0.922c-0.49-0.281-1.235-0.601-2.235-0.958c-1.398-0.501-2.396-1.095-2.996-1.781
	c-0.599-0.686-0.899-1.582-0.899-2.688c0-1.16,0.435-2.083,1.305-2.77c0.87-0.686,2.021-1.03,3.453-1.03
	c1.493,0,2.867,0.275,4.121,0.824l-0.545,1.524c-1.24-0.522-2.446-0.783-3.617-0.783c-0.925,0-1.648,0.199-2.168,0.597
	c-0.521,0.398-0.781,0.951-0.781,1.658c0,0.522,0.096,0.949,0.288,1.282C310.11,77.39,310.434,77.695,310.889,77.973z
	 M305.747,56.873c-2.329,1.082-5.15,1.623-8.464,1.623c-3.508,0-6.474-0.658-8.9-1.974c-2.426-1.316-4.242-3.216-5.449-5.7
	c-1.207-2.484-1.811-5.458-1.811-8.922v-1.949h9.156v1.946c0,5.93,2.331,8.895,6.994,8.895c1.785,0,3.176-0.498,4.171-1.494
	c0.995-0.996,1.493-2.296,1.493-3.901c0-1.582-0.409-2.937-1.228-4.063c-0.819-1.127-2.161-2.288-4.025-3.483l-8.519-5.6
	c-5.042-3.278-7.563-7.615-7.563-13.01c0-4.075,1.372-7.274,4.116-9.596c2.744-2.322,6.342-3.483,10.795-3.483
	c3.165,0,5.873,0.575,8.121,1.725c2.249,1.15,3.951,2.869,5.107,5.157c1.156,2.288,1.734,5.1,1.734,8.435v1.554h-9.155v-0.563
	c0-5.736-2.01-8.605-6.029-8.605c-1.435,0-2.645,0.376-3.63,1.127c-0.985,0.752-1.477,1.799-1.477,3.143
	c0,1.389,0.259,2.508,0.777,3.356c0.518,0.848,1.335,1.643,2.451,2.383l9.788,6.508c1.947,1.298,3.536,2.551,4.766,3.758
	c1.23,1.207,2.178,2.642,2.844,4.304c0.666,1.663,0.999,3.706,0.999,6.132c0,2.961-0.595,5.48-1.785,7.558
	C309.835,54.211,308.075,55.791,305.747,56.873z M288.272,73.726h-6.628v4.85h6.228v1.545h-6.228v5.54h6.628v1.565h-8.375V72.171
	h8.375V73.726z M256.547,57.818l1.489-7.208H237.37c0.247-2.109,0.999-4.072,2.256-5.889c1.256-1.816,2.848-3.61,4.776-5.381
	c1.927-1.771,4.062-3.724,6.406-5.859c2.448-2.37,4.339-5.013,5.674-7.929c1.335-2.917,2.002-5.872,2.002-8.867
	c0-2.981-0.71-5.628-2.129-7.939c-0.205-0.334-0.424-0.653-0.651-0.965h7.087l9.175,25.262l-9.175,24.688L256.547,57.818z
	 M228.698,9.386c-1.523,2.619-2.285,5.772-2.285,9.459v3.361h10.235v-3.104c0-3.162,0.485-5.407,1.455-6.735
	c0.97-1.328,2.406-1.991,4.307-1.991c3.789,0,5.684,2.427,5.684,7.281c0,1.965-0.361,3.644-1.084,5.037
	c-0.723,1.392-2.308,3.312-4.756,5.759c-1.823,1.64-3.61,3.254-5.361,4.842c-1.751,1.588-3.477,3.443-5.176,5.564
	c-1.699,2.121-3.128,4.643-4.287,7.565c-1.159,2.922-1.738,6.231-1.738,9.928V58.1h-8.986l-14.075-36.655
	c0.843,4.088,1.264,10.362,1.264,18.823V58.1h-9.019V7.593h10.352l14.058,36.723c-0.831-4.589-1.247-10.863-1.247-18.823v-17.9
	h9.019v0.188h2.704C229.385,8.287,229.028,8.818,228.698,9.386z M184.077,73.52c-1.651,0-2.954,0.551-3.91,1.653
	s-1.434,2.61-1.434,4.526c0,1.97,0.461,3.493,1.382,4.567c0.921,1.074,2.235,1.611,3.941,1.611c1.048,0,2.244-0.189,3.586-0.566
	v1.534c-1.041,0.391-2.326,0.587-3.854,0.587c-2.213,0-3.921-0.673-5.123-2.018c-1.202-1.345-1.803-3.257-1.803-5.736
	c0-1.551,0.289-2.911,0.868-4.078c0.579-1.167,1.415-2.066,2.507-2.698c1.093-0.632,2.379-0.947,3.859-0.947
	c1.576,0,2.953,0.288,4.131,0.865l-0.74,1.503C186.352,73.787,185.215,73.52,184.077,73.52z M176.822,7.593h9.583V58.1h-9.583V7.593
	z M168.147,87.225l-4.039-6.621l-4.111,6.621h-1.85l4.994-7.867l-4.655-7.187h1.932l3.73,5.962l3.761-5.962h1.86l-4.655,7.126
	l5.015,7.929H168.147z M161.229,57.391c-2.403,1.076-5.295,1.614-8.678,1.614c-10.966,0-16.45-5.665-16.45-16.995V23.956
	c0-4.099,0.683-7.433,2.05-10s3.274-4.424,5.722-5.568c2.448-1.144,5.341-1.716,8.677-1.716c3.382,0,6.271,0.561,8.669,1.682
	c2.397,1.122,4.256,2.966,5.577,5.534c1.321,2.568,1.981,5.924,1.981,10.069V42.01c0,4.145-0.658,7.476-1.973,9.992
	C165.491,54.519,163.632,56.315,161.229,57.391z M158.975,22.983c0-2.71-0.555-4.822-1.665-6.337
	c-1.11-1.514-2.696-2.272-4.757-2.272c-4.441,0-6.662,2.824-6.662,8.472v20.36c0,5.409,2.221,8.113,6.662,8.113
	c2.084,0,3.675-0.694,4.774-2.084c1.099-1.389,1.648-3.399,1.648-6.029V22.983z M122.879,57.007
	c-2.282,1.48-5.312,2.221-9.091,2.221c-5.804,0-9.856-1.529-12.155-4.586c-2.299-3.057-3.449-7.154-3.449-12.289V24.025
	c0-5.864,1.314-10.223,3.944-13.075c2.629-2.852,6.561-4.279,11.797-4.279c3.187,0,5.927,0.598,8.22,1.793
	c2.293,1.196,4.026,2.924,5.199,5.184c1.172,2.261,1.759,4.928,1.759,8.002v2.374h-9.651v-1.11c0-3.154-0.433-5.366-1.298-6.636
	c-0.866-1.27-2.323-1.904-4.373-1.904c-2.061,0-3.545,0.641-4.45,1.922c-0.905,1.281-1.358,3.487-1.358,6.619v19.865
	c0,3.223,0.441,5.486,1.324,6.79c0.882,1.304,2.354,1.956,4.416,1.956c1.981,0,3.433-0.666,4.356-1.998
	c0.923-1.332,1.384-3.581,1.384-6.747v-2.733h9.651v2.306c0,3.279-0.467,6.172-1.4,8.677
	C126.769,53.534,125.161,55.527,122.879,57.007z M102.543,84.754c-0.014-0.185-0.045-0.781-0.092-1.787
	c-0.048-1.006-0.065-1.725-0.051-2.157v-8.639h1.634v15.054h-1.994L93.829,74.59h-0.082c0.109,1.483,0.164,2.842,0.164,4.078v8.557
	h-1.613V72.171h1.973l8.19,12.583H102.543z M82.148,58.1h-9.583V15.707H61.308V7.593h31.823v8.113H82.148V58.1z M66.612,73.726
	h-4.758v13.5h-1.747v-13.5h-4.758v-1.555h11.263V73.726z M45.562,7.593h9.583V58.1h-9.583V7.593z M47.989,72.778l-0.545,1.524
	c-1.24-0.522-2.446-0.783-3.617-0.783c-0.925,0-1.648,0.199-2.168,0.597c-0.521,0.398-0.781,0.951-0.781,1.658
	c0,0.522,0.096,0.949,0.288,1.282c0.192,0.333,0.516,0.638,0.971,0.916c0.455,0.278,1.153,0.585,2.091,0.922
	c1.576,0.563,2.66,1.167,3.253,1.812c0.592,0.645,0.889,1.483,0.889,2.512c0,1.325-0.48,2.358-1.439,3.1
	c-0.959,0.741-2.261,1.112-3.905,1.112c-1.781,0-3.151-0.23-4.111-0.69v-1.689c0.617,0.261,1.288,0.467,2.014,0.618
	c0.726,0.151,1.445,0.226,2.158,0.226c1.165,0,2.042-0.221,2.631-0.664c0.589-0.443,0.884-1.059,0.884-1.848
	c0-0.522-0.105-0.949-0.313-1.282c-0.209-0.333-0.559-0.64-1.048-0.922c-0.49-0.281-1.235-0.601-2.235-0.958
	c-1.398-0.501-2.396-1.095-2.996-1.781c-0.6-0.686-0.899-1.582-0.899-2.688c0-1.16,0.435-2.083,1.305-2.77
	c0.87-0.686,2.021-1.03,3.453-1.03C45.361,71.954,46.735,72.229,47.989,72.778z M38.134,43.121c0,2.984-0.43,5.597-1.29,7.84
	c-0.86,2.243-2.155,3.994-3.886,5.252c-1.731,1.258-3.855,1.887-6.371,1.887H7.285V7.593h17.697c2.813,0,5.156,0.558,7.029,1.674
	c1.873,1.116,3.246,2.605,4.117,4.466c0.871,1.862,1.307,3.92,1.307,6.175c0,1.617-0.282,3.237-0.845,4.859
	c-0.564,1.623-1.361,2.995-2.391,4.116c-1.031,1.122-2.212,1.813-3.545,2.075c2.539,1.025,4.421,2.502,5.645,4.432
	C37.522,37.322,38.134,39.898,38.134,43.121z M26.527,16.347c-0.882-1.03-2.377-1.546-4.484-1.546h-5.176V28.09h5.039
	c3.963,0,5.944-2.289,5.944-6.866C27.851,19.003,27.41,17.378,26.527,16.347z M23.017,35.298h-6.149v15.594h6.149
	c1.833,0,3.18-0.609,4.04-1.828c0.86-1.218,1.29-3.222,1.29-6.012C28.347,37.883,26.57,35.298,23.017,35.298z M8.327,87.225H6.58
	V72.171h1.747V87.225z M28.4,84.754h0.082c-0.014-0.185-0.045-0.781-0.093-1.787c-0.048-1.006-0.065-1.725-0.051-2.157v-8.639h1.634
	v15.054h-1.994L19.767,74.59h-0.082c0.109,1.483,0.164,2.842,0.164,4.078v8.557h-1.613V72.171h1.973L28.4,84.754z M78.535,72.109
	l5.909,15.116h-1.809l-1.87-4.788h-6.022l-1.85,4.788h-1.768l5.94-15.116H78.535z M80.22,80.862l-1.747-4.665
	c-0.226-0.59-0.459-1.314-0.699-2.173c-0.151,0.659-0.367,1.383-0.647,2.173l-1.768,4.665H80.22z M123.335,73.726h-4.758v13.5
	h-1.747v-13.5h-4.758v-1.555h11.263V73.726z M151.014,73.726h-6.628v4.85h6.228v1.545h-6.228v5.54h6.628v1.565h-8.375V72.171h8.375
	V73.726z M198.456,78.576h7.913v-6.405h1.747v15.054h-1.747v-7.084h-7.913v7.084h-1.747V72.171h1.747V78.576z M223.369,72.109
	l5.909,15.116h-1.809l-1.87-4.788h-6.022l-1.85,4.788h-1.768l5.94-15.116H223.369z M225.054,80.862l-1.747-4.665
	c-0.226-0.59-0.459-1.314-0.699-2.173c-0.151,0.659-0.367,1.383-0.647,2.173l-1.768,4.665H225.054z M247.295,84.754h0.082
	c-0.014-0.185-0.045-0.781-0.092-1.787c-0.048-1.006-0.065-1.725-0.051-2.157v-8.639h1.634v15.054h-1.994l-8.211-12.635h-0.082
	c0.109,1.483,0.164,2.842,0.164,4.078v8.557h-1.613V72.171h1.973L247.295,84.754z M261.653,72.886
	c1.178-0.621,2.559-0.932,4.141-0.932c1.603,0,3.097,0.295,4.481,0.886l-0.678,1.545c-1.356-0.577-2.662-0.865-3.915-0.865
	c-1.829,0-3.258,0.546-4.285,1.637c-1.028,1.091-1.542,2.605-1.542,4.541c0,2.032,0.495,3.573,1.485,4.623
	c0.99,1.05,2.444,1.575,4.362,1.575c1.041,0,2.059-0.12,3.052-0.36v-4.634h-3.36v-1.565h5.107v7.321
	c-0.795,0.254-1.603,0.446-2.425,0.577c-0.822,0.13-1.774,0.196-2.857,0.196c-2.275,0-4.046-0.678-5.313-2.034
	c-1.267-1.356-1.901-3.256-1.901-5.7c0-1.565,0.313-2.936,0.94-4.114C259.572,74.407,260.475,73.508,261.653,72.886z
	 M334.358,73.726h-6.628v4.85h6.228v1.545h-6.228v5.54h6.628v1.565h-8.375V72.171h8.375V73.726z M365.51,81.912
	c0.397,1.119,0.713,2.207,0.946,3.264c0.247-1.112,0.568-2.221,0.966-3.326l3.432-9.679h1.881l-5.416,15.054h-1.727l-5.385-15.054
	h1.85L365.51,81.912z M382.335,87.225h-1.747V72.171h1.747V87.225z M394.839,72.902c1.093-0.632,2.379-0.947,3.859-0.947
	c1.576,0,2.953,0.288,4.131,0.865l-0.74,1.503c-1.137-0.535-2.275-0.803-3.412-0.803c-1.651,0-2.955,0.551-3.91,1.653
	s-1.434,2.61-1.434,4.526c0,1.97,0.461,3.493,1.382,4.567c0.921,1.074,2.235,1.611,3.941,1.611c1.048,0,2.244-0.189,3.586-0.566
	v1.534c-1.041,0.391-2.326,0.587-3.854,0.587c-2.213,0-3.921-0.673-5.123-2.018c-1.202-1.345-1.803-3.257-1.803-5.736
	c0-1.551,0.289-2.911,0.868-4.078C392.91,74.433,393.746,73.533,394.839,72.902z M419.684,73.726h-6.628v4.85h6.228v1.545h-6.228
	v5.54h6.628v1.565h-8.375V72.171h8.375V73.726z"/>
</svg>
