<?xml version="1.0" encoding="utf-8"?>
<!-- Generator: Adobe Illustrator 17.0.0, SVG Export Plug-In . SVG Version: 6.00 Build 0)  -->
<!DOCTYPE svg PUBLIC "-//W3C//DTD SVG 1.1//EN" "http://www.w3.org/Graphics/SVG/1.1/DTD/svg11.dtd">
<svg version="1.1" id="Layer_1" xmlns="http://www.w3.org/2000/svg" xmlns:xlink="http://www.w3.org/1999/xlink" x="0px" y="0px"
	 width="55px" height="51px" viewBox="0 0 55 51">
<g>
	<g>
		<path fill="#A6D0F0" d="M32.701,10.504c-1.563,0.504-3.125,1.01-4.687,1.514c-1.534,0.495-3.069,0.986-4.603,1.481
			c-1.553,0.501-3.105,1.006-4.658,1.508c-1.562,0.504-3.125,1.007-4.688,1.509c-1.582,0.509-3.163,1.019-4.745,1.522
			c-0.334,0.106-0.392,0.036-0.393-0.416c-0.002-0.989,0.001-1.979-0.001-2.969c-0.001-0.448-0.036-0.493-0.387-0.494
			c-0.913-0.003-1.825-0.002-2.738,0c-0.414,0.001-0.432,0.021-0.432,0.546c-0.001,5.423,0.001,10.847-0.005,16.27
			c0,0.345,0.089,0.465,0.353,0.461c0.942-0.013,1.884-0.003,2.825-0.006c0.351-0.002,0.382-0.045,0.383-0.498
			c0.002-0.989,0-1.979,0.002-2.968c0.001-0.506,0.052-0.555,0.422-0.435c0.48,0.155,0.961,0.306,1.441,0.461
			c1.789,0.577,3.576,1.162,5.368,1.723c0.298,0.093,0.381,0.279,0.38,0.652c-0.566,1.952-0.548,1.953-1.019,3.972
			c-0.494,2.119,0.416,4.256,2.06,4.774c4.057,1.279,8.66,3.183,12.724,4.429c0.401,0.123,0.861,0.145,1.272,0.038
			c1.34-0.348,2.236-1.366,2.602-3.087c0.114-0.537,1.129-4.598,1.534-4.469c2.396,0.764,6.346,2.821,6.346,2.821L42.15,7.629
			c0,0-1.742,0.393-4.79,1.376C35.807,9.505,34.254,10.003,32.701,10.504z M31.629,39.623c-0.123,0.507-0.361,0.691-0.765,0.577
			c-0.387-0.11-0.77-0.235-1.154-0.356c-1.584-0.495-3.44-1.306-5.024-1.802c-1.912-0.598-4.096-1.512-6.008-2.111
			c-0.57-0.179-0.659-0.38-0.49-1.113c0.373-1.608,0.586-1.835,1.03-3.517c0-0.544,0.05-0.589,0.462-0.456
			c3.511,1.133,7.022,2.264,10.532,3.398c0.696,0.225,1.39,0.462,2.088,0.681c0.229,0.072,0.322,0.228,0.309,0.531
			C32.596,35.781,31.705,39.31,31.629,39.623z M50.033,22.825H50.03V5.765c0-0.125,0.002-0.251-0.001-0.376
			c-0.01-0.379-0.062-0.431-0.36-0.358c-0.067,0.016-0.132,0.042-0.198,0.063c-1.158,0.374-2.315,0.752-3.474,1.119
			c-0.436,0.138-0.454,0.15-0.454,0.72c0,10.572,0.003,21.143-0.008,31.715c0,0.431,0.119,0.593,0.42,0.687
			c1.246,0.386,2.487,0.796,3.73,1.195c0.296,0.095,0.346,0.04,0.346-0.345C50.033,34.398,50.033,28.612,50.033,22.825z"/>
	</g>
</g>
</svg>
