<svg id="Layer_1" data-name="Layer 1" xmlns="http://www.w3.org/2000/svg" viewBox="0 0 35 45"><title>quest</title><path d="M213.88,297h-22a6.55,6.55,0,0,0-6.48,6.62v22.76a6.55,6.55,0,0,0,6.48,6.62h11.89l9.64,9v-9h0.5a6.55,6.55,0,0,0,6.48-6.62V303.66A6.55,6.55,0,0,0,213.88,297Zm-8.41,32.2H200v-5.38h5.45v5.38Zm5.34-15.83a13.63,13.63,0,0,1-3.41,3.18,6,6,0,0,0-1.74,1.74,6.28,6.28,0,0,0-.56,3h-4.94a11.28,11.28,0,0,1,.6-4.32,9.37,9.37,0,0,1,3.23-3.45,6.9,6.9,0,0,0,1.75-1.74,3.81,3.81,0,0,0,.59-2,3.61,3.61,0,0,0-1.22-3,3.75,3.75,0,0,0-2.41-.8,3.92,3.92,0,0,0-2.75.95,5.34,5.34,0,0,0-1.3,3.44l-5.27,0a8.46,8.46,0,0,1,2.93-7,9.36,9.36,0,0,1,6-2,10.6,10.6,0,0,1,7.13,2.23,7.29,7.29,0,0,1,2.45,5.87A6.68,6.68,0,0,1,210.82,313.41Z" transform="translate(-185.36 -297.04)"/></svg>