<?xml version="1.0" encoding="utf-8"?>
<!-- Generator: Adobe Illustrator 17.0.0, SVG Export Plug-In . SVG Version: 6.00 Build 0)  -->
<!DOCTYPE svg PUBLIC "-//W3C//DTD SVG 1.1//EN" "http://www.w3.org/Graphics/SVG/1.1/DTD/svg11.dtd">
<svg version="1.1" id="Layer_1" xmlns="http://www.w3.org/2000/svg" xmlns:xlink="http://www.w3.org/1999/xlink" x="0px" y="0px"
	 width="55px" height="51px" viewBox="0 0 55 51">
<g>
	<g>
		<path fill="#A6D0F0" d="M43.827,0.468H12.558c-4.112,0-7.445,3.334-7.445,7.447v25.619c0,4.113,3.333,7.447,7.445,7.447h19.619
			L43.254,51.11V40.982h0.573c4.112,0,7.445-3.334,7.445-7.447V7.916C51.272,3.803,47.939,0.468,43.827,0.468z M18.713,32.955
			c-0.001,1.12-0.633,1.763-1.733,1.767c-0.397,0.001-0.795,0.005-1.192-0.001c-0.782-0.012-1.31-0.417-1.555-1.181
			c-0.015-0.046-0.039-0.089-0.059-0.133V19.059c0.133-0.26,0.234-0.546,0.408-0.774c0.26-0.34,0.632-0.522,1.06-0.534
			c0.494-0.013,0.988-0.011,1.482-0.004c0.927,0.013,1.584,0.688,1.587,1.643c0.006,1.953,0.002,3.907,0.002,5.86
			C18.715,27.819,18.715,30.387,18.713,32.955z M43.964,25.488c-0.152,0.505-0.221,1.058-0.469,1.506
			c-1.269,2.292-2.584,4.557-3.882,6.832c-0.338,0.592-0.846,0.883-1.509,0.884c-4.925,0.004-9.85,0.012-14.775-0.007
			c-0.441-0.002-0.908-0.122-1.317-0.297c-0.902-0.387-1.399-1.045-1.39-2.133c0.033-4.295,0.033-8.591-0.002-12.886
			c-0.008-0.94,0.148-1.745,0.864-2.376c0.036-0.032,0.06-0.077,0.09-0.116c1.558-2.037,2.842-4.248,3.945-6.571
			c0.073-0.153,0.114-0.337,0.117-0.507c0.022-1.12,0-2.242,0.053-3.361c0.043-0.919,0.687-1.499,1.585-1.511
			c0.698-0.009,1.396,0.001,2.094-0.003c0.406-0.002,0.79,0.11,1.052,0.418c0.256,0.3,0.47,0.651,0.639,1.011
			c0.62,1.325,1.031,2.705,0.997,4.199c-0.031,1.387-0.345,2.725-0.631,4.07c-0.054,0.254-0.107,0.509-0.167,0.79
			c0.163,0,0.278,0,0.393,0c3.51,0.003,7.019,0.007,10.529,0.008c0.581,0,1.1,0.149,1.456,0.65c0.138,0.195,0.221,0.431,0.328,0.648
			V25.488z"/>
	</g>
</g>
</svg>
